<svg aria-hidden="true" style="position: absolute; width: 0; height: 0; overflow: hidden;" version="1.1" xmlns="http://www.w3.org/2000/svg" xmlns:xlink="http://www.w3.org/1999/xlink">
<defs>
<symbol id="creators-developers" viewBox="0 0 32 32">
<path d="M24.811 27.113h-17.613c0.622-0.932 1.607-1.56 2.715-1.732 1.757-0.271 4.268-0.797 4.485-1.602 0.061-0.228 0.048-0.46-0.016-0.688h3.246c-0.064 0.228-0.078 0.46-0.016 0.688 0.217 0.805 2.728 1.33 4.485 1.602 1.108 0.172 2.092 0.8 2.714 1.732z"></path>
<path d="M7.451 5.815v2.33h17.108v-2.33c0-0.528-0.432-0.96-0.96-0.96h-15.188c-0.528 0-0.96 0.432-0.96 0.96zM21.598 6.5c0-0.22 0.18-0.4 0.4-0.4h0.896c0.22 0 0.4 0.18 0.4 0.4s-0.18 0.4-0.4 0.4h-0.896c-0.22 0-0.4-0.18-0.4-0.4zM18.926 6.5c0-0.22 0.18-0.4 0.4-0.4h0.896c0.22 0 0.4 0.18 0.4 0.4s-0.18 0.4-0.4 0.4h-0.896c-0.22 0-0.4-0.18-0.4-0.4zM16.254 6.5c0-0.22 0.18-0.4 0.4-0.4h0.896c0.22 0 0.4 0.18 0.4 0.4s-0.18 0.4-0.4 0.4h-0.896c-0.22 0-0.4-0.18-0.4-0.4z"></path>
<path d="M26.173 6.74h-0.815v1.405c0 0.001 0 0.003 0 0.004-0.001 0.264-0.001 0.527 0 0.791 0 0.001 0 0.003 0 0.004v9.939c0 0.972-0.788 1.76-1.76 1.76h-15.188c-0.972 0-1.76-0.788-1.76-1.76v-9.939c0-0.001 0-0.003 0-0.004 0.001-0.264 0.001-0.527 0-0.791 0-0.001 0-0.003 0-0.004v-1.405h-0.815c-0.53 0-0.96 0.43-0.96 0.96v13.631c0 0.53 0.43 0.96 0.96 0.96h20.337c0.53 0 0.96-0.43 0.96-0.96v-13.631c-0-0.53-0.43-0.96-0.96-0.96z"></path>
<path d="M19.824 14.932h-0.506v0.823h0.506c0.116 0 0.213-0.039 0.292-0.118s0.119-0.177 0.119-0.296c0-0.112-0.040-0.208-0.119-0.288s-0.177-0.12-0.292-0.12z"></path>
<path d="M7.451 8.945v9.939c0 0.529 0.431 0.96 0.96 0.96h15.188c0.529 0 0.96-0.431 0.96-0.96 0 0 0-9.938 0-9.939h-17.108zM8.883 10.819h0.896c0.22 0 0.4 0.18 0.4 0.4s-0.18 0.4-0.4 0.4h-0.896c-0.22 0-0.4-0.18-0.4-0.4s0.18-0.4 0.4-0.4zM10.515 17.132c0.156 0.156 0.156 0.409 0 0.566s-0.409 0.156-0.566 0l-1.35-1.35c-0.156-0.156-0.156-0.409 0-0.566l1.35-1.35c0.156-0.156 0.409-0.156 0.566 0s0.156 0.409 0 0.566l-1.067 1.067 1.067 1.067zM14.509 16.658c-0.091 0.211-0.215 0.396-0.372 0.553s-0.341 0.28-0.553 0.369c-0.211 0.089-0.437 0.134-0.678 0.134s-0.468-0.045-0.681-0.134c-0.213-0.089-0.398-0.211-0.555-0.367s-0.282-0.338-0.375-0.547c-0.093-0.21-0.139-0.435-0.139-0.676 0-0.234 0.044-0.457 0.131-0.668s0.209-0.397 0.364-0.558c0.155-0.161 0.338-0.288 0.547-0.382s0.437-0.141 0.681-0.141c0.252 0 0.485 0.046 0.699 0.139s0.402 0.217 0.561 0.375c0.159 0.157 0.283 0.341 0.372 0.553s0.134 0.436 0.134 0.673c-0 0.241-0.045 0.467-0.136 0.678zM18.26 16.658c-0.091 0.211-0.215 0.396-0.372 0.553s-0.341 0.28-0.553 0.369c-0.211 0.089-0.437 0.134-0.678 0.134s-0.468-0.045-0.681-0.134c-0.213-0.089-0.398-0.211-0.555-0.367s-0.282-0.338-0.375-0.547c-0.093-0.21-0.139-0.435-0.139-0.676 0-0.234 0.044-0.457 0.131-0.668s0.209-0.397 0.364-0.558c0.155-0.161 0.338-0.288 0.547-0.382s0.437-0.141 0.681-0.141c0.252 0 0.485 0.046 0.699 0.139s0.402 0.217 0.561 0.375c0.159 0.157 0.283 0.341 0.372 0.553s0.134 0.436 0.134 0.673c0 0.241-0.045 0.467-0.136 0.678zM20.772 15.746c-0.054 0.124-0.129 0.233-0.223 0.327s-0.205 0.169-0.331 0.223c-0.126 0.054-0.259 0.081-0.399 0.081h-0.499v0.948c0 0.21-0.102 0.314-0.306 0.314-0.208 0-0.312-0.105-0.312-0.314v-2.646c0-0.244 0.124-0.367 0.372-0.367h0.749c0.14 0 0.272 0.027 0.398 0.081s0.236 0.128 0.33 0.223 0.168 0.204 0.223 0.33c0.054 0.126 0.081 0.259 0.081 0.398 0 0.143-0.027 0.277-0.082 0.401zM23.41 16.348l-1.35 1.35c-0.156 0.156-0.409 0.156-0.566 0s-0.156-0.409 0-0.566l1.067-1.067-1.067-1.067c-0.156-0.156-0.156-0.409 0-0.566s0.409-0.156 0.566 0l1.35 1.35c0.156 0.156 0.156 0.41 0 0.566zM23.127 11.619h-11.62c-0.22 0-0.4-0.18-0.4-0.4s0.18-0.4 0.4-0.4h11.62c0.22 0 0.4 0.18 0.4 0.4s-0.18 0.4-0.4 0.4z"></path>
<path d="M17.432 15.188c-0.101-0.101-0.22-0.182-0.356-0.241s-0.279-0.089-0.43-0.089c-0.157 0-0.303 0.031-0.437 0.092s-0.251 0.143-0.348 0.246c-0.098 0.103-0.175 0.224-0.231 0.361s-0.084 0.282-0.084 0.432c0 0.154 0.028 0.297 0.084 0.43s0.134 0.25 0.233 0.351c0.1 0.101 0.216 0.181 0.348 0.238s0.278 0.086 0.435 0.086 0.303-0.029 0.437-0.086c0.134-0.058 0.252-0.137 0.354-0.238s0.181-0.22 0.238-0.356 0.086-0.281 0.086-0.435c0-0.154-0.030-0.299-0.089-0.435s-0.14-0.255-0.241-0.356z"></path>
<path d="M13.681 15.188c-0.101-0.101-0.22-0.182-0.356-0.241s-0.28-0.089-0.43-0.089c-0.157 0-0.303 0.031-0.437 0.092s-0.251 0.143-0.348 0.246c-0.098 0.103-0.175 0.224-0.231 0.361s-0.084 0.282-0.084 0.432c0 0.154 0.028 0.297 0.084 0.43s0.134 0.25 0.233 0.351c0.1 0.101 0.216 0.181 0.348 0.238s0.278 0.086 0.435 0.086c0.157 0 0.303-0.029 0.437-0.086s0.252-0.137 0.354-0.238c0.101-0.101 0.181-0.22 0.238-0.356s0.086-0.281 0.086-0.435c0-0.154-0.030-0.299-0.089-0.435s-0.14-0.255-0.241-0.356z"></path>
</symbol>
<symbol id="creators-heart" viewBox="0 0 32 32">
<path fill="#f87719" style="fill: var(--color1, #f87719)" d="M2.485 16.485l13.515 13.515 13.515-13.515c1.591-1.591 2.485-3.75 2.485-6v-0.381c0-4.476-3.629-8.105-8.105-8.105-2.462 0-4.791 1.119-6.329 3.042l-1.567 1.958-1.567-1.958c-1.538-1.923-3.867-3.042-6.329-3.042-4.476 0-8.105 3.629-8.105 8.105v0.381c0 2.25 0.894 4.409 2.485 6z"></path>
</symbol>
<symbol id="creators-github" viewBox="0 0 32 32">
<path d="M16 0c8.837 0 16 7.344 16 16.405 0 7.246-4.579 13.394-10.933 15.565-0.811 0.162-1.099-0.35-1.099-0.787 0-0.541 0.019-2.307 0.019-4.502 0-1.53-0.512-2.528-1.086-3.037 3.563-0.406 7.307-1.794 7.307-8.094 0-1.792-0.621-3.254-1.648-4.403 0.166-0.414 0.715-2.083-0.157-4.342 0 0-1.341-0.44-4.395 1.682-1.278-0.363-2.648-0.546-4.008-0.552-1.36 0.006-2.728 0.189-4.005 0.552-3.058-2.122-4.402-1.682-4.402-1.682-0.869 2.259-0.32 3.928-0.155 4.342-1.022 1.149-1.648 2.611-1.648 4.403 0 6.285 3.736 7.693 7.29 8.107-0.458 0.41-0.872 1.133-1.016 2.194-0.912 0.419-3.229 1.144-4.656-1.363 0 0-0.846-1.576-2.453-1.691 0 0-1.56-0.021-0.109 0.997 0 0 1.048 0.504 1.776 2.4 0 0 0.939 2.928 5.39 1.936 0.008 1.371 0.022 2.664 0.022 3.054 0 0.434-0.294 0.941-1.093 0.789-6.358-2.168-10.942-8.318-10.942-15.566 0-9.061 7.165-16.405 16-16.405z"></path>
</symbol>
<symbol id="creators-linkedin" viewBox="0 0 32 32">
<path d="M29.105 0h-26.211c-1.599 0-2.895 1.296-2.895 2.895v26.211c0 1.599 1.296 2.895 2.895 2.895h26.211c1.599 0 2.895-1.296 2.895-2.895v-26.211c0-1.599-1.296-2.895-2.895-2.895zM9.902 27.631c0 0.465-0.377 0.842-0.842 0.842h-3.586c-0.465 0-0.842-0.377-0.842-0.842v-15.032c0-0.465 0.377-0.842 0.842-0.842h3.586c0.465 0 0.842 0.377 0.842 0.842v15.032zM7.267 10.34c-1.881 0-3.407-1.525-3.407-3.407s1.525-3.407 3.407-3.407 3.407 1.525 3.407 3.407-1.525 3.407-3.407 3.407zM28.642 27.699c0 0.428-0.347 0.775-0.775 0.775h-3.848c-0.428 0-0.775-0.347-0.775-0.775v-7.051c0-1.052 0.309-4.609-2.749-4.609-2.371 0-2.852 2.435-2.949 3.528v8.132c0 0.428-0.347 0.775-0.775 0.775h-3.722c-0.428 0-0.775-0.347-0.775-0.775v-15.167c0-0.428 0.347-0.775 0.775-0.775h3.722c0.428 0 0.775 0.347 0.775 0.775v1.311c0.879-1.32 2.186-2.338 4.969-2.338 6.161 0 6.126 5.756 6.126 8.919v7.275z"></path>
</symbol>
</defs>
</svg>
